<?xml version="1.0" encoding="UTF-8"?>
<svg id="Layer_1" data-name="Layer 1" xmlns="http://www.w3.org/2000/svg" version="1.1" viewBox="0 0 551.2 144.6">
  <defs>
    <style>
      .cls-1 {
        fill: #dbdee1;
        stroke-width: 0px;
      }
    </style>
  </defs>
  <path class="cls-1" d="M70,93.1h6.6c0,0,17.5-36.6,17.5-36.6h-7.8s-12.5,26.2-12.8,27.5h-.2c-.3-1.3-12.8-27.5-12.8-27.5h-7.9l17.5,36.6Z"/>
  <path class="cls-1" d="M110.7,93.8c8.1,0,14.4-4.8,16.6-11.7h-7.4c-1.5,3.3-4.6,5.2-9.2,5.2s-10-3.7-11-9.7h28.4c.2-1.1.2-1.8.2-2.9,0-10.9-7.9-19.1-17.5-19.1s-18.5,7.8-18.5,19.1,7.8,19.1,18.5,19.1ZM110.7,62.3c5.6,0,9.6,4.4,10.1,9.4h-21c1.1-5.7,5.3-9.4,10.9-9.4h0Z"/>
  <path class="cls-1" d="M149.7,93.8c8.1,0,14.4-4.8,16.6-11.7h-7.4c-1.5,3.3-4.6,5.2-9.2,5.2s-10-3.7-11-9.7h28.4c.2-1.1.2-1.8.2-2.9,0-10.9-7.9-19.1-17.5-19.1s-18.5,7.8-18.5,19.1,7.9,19.1,18.5,19.1ZM149.7,62.3c5.6,0,9.6,4.4,10.1,9.4h-21c1.1-5.7,5.3-9.4,10.9-9.4h0Z"/>
  <path class="cls-1" d="M187.7,93.8c4.4,0,9.4-2.3,12.2-6.5l.6,5.7h6.4v-18.3c0-12.2-8.6-19-18.2-19.1-10.4,0-18.6,8-18.6,19.1s7.6,19.1,17.6,19.1h0ZM188.6,62.2c5.7,0,11,4.4,11,12.5s-5.4,12.5-11,12.5-11.3-5-11.3-12.5,5.1-12.5,11.3-12.5Z"/>
  <path class="cls-1" d="M218.8,71.9c0-5.9,2.7-9.5,8.1-9.5s8.1,3.6,8.1,9.7v21h7.2v-21c0-6.1,2.7-9.7,8.1-9.7s8.1,3.6,8.1,9.5v21.1h7.1v-21.7c0-9.1-5.9-15.7-15-15.7s-11.3,4.9-11.8,6.7h-.2c-.6-1.8-4.4-6.7-11.8-6.7s-15,6.6-15,15.7v21.7h7.1v-21.1Z"/>
  <path class="cls-1" d="M48.4,37.6l-13,12.9c-2,2-3.2,4.8-3.2,7.6v56.9h234.7c2.9,0,5.6-1.1,7.6-3.2l12.8-12.8c2-2,3.2-4.8,3.2-7.6v-57H56c-2.9,0-5.6,1.1-7.6,3.2h0ZM288.2,91.5c0,2.3-.9,4.4-2.5,6l-12.8,12.8c-1.6,1.6-3.8,2.5-6,2.5H34.4v-54.7c0-2.3.9-4.4,2.5-6l12.9-12.9c1.6-1.6,3.8-2.5,6-2.5h232.3v54.8Z"/>
  <polygon class="cls-1" points="339.2 46.5 316.1 70.6 316.1 46.5 308.9 46.5 308.9 99.1 316.1 99.1 316.1 72.3 339.2 99.1 348.6 99.1 324.5 71.6 348.9 46.5 339.2 46.5"/>
  <path class="cls-1" d="M378.1,64.3c-2.8-1.5-5.7-2.2-8.9-2.2s-6.5.8-9.3,2.5c-2.8,1.7-5,3.9-6.6,6.8s-2.4,6.1-2.4,9.6.8,6.8,2.3,9.7c1.5,2.9,3.6,5.1,6.3,6.7,2.6,1.6,5.6,2.4,8.9,2.4s4.1-.5,6.2-1.4,3.8-2.3,5.3-4.1c.2-.3.4-.6.6-.9l.6,5.7h6.3v-18.1c0-3.9-.8-7.2-2.5-10.1-1.6-2.9-3.9-5-6.6-6.5h0ZM378.6,87.5c-1,1.9-2.4,3.3-4,4.3-1.6,1-3.4,1.5-5.3,1.5s-4.1-.5-5.8-1.6c-1.7-1-3-2.5-4-4.4-1-1.9-1.4-4-1.4-6.4s.5-4.6,1.5-6.4c1-1.9,2.4-3.3,4.1-4.4,1.7-1,3.6-1.6,5.6-1.6s3.7.5,5.4,1.5c1.7,1,3,2.4,4,4.2,1,1.9,1.5,4.1,1.5,6.7s-.5,4.7-1.5,6.5h0Z"/>
  <path class="cls-1" d="M415.5,80.4c-1.6-.8-3.6-1.5-6-2.1-2.6-.8-4.5-1.6-5.8-2.3-1.2-.7-1.8-1.8-1.8-3.2s.5-2.5,1.5-3.3c1-.8,2.3-1.2,3.9-1.2s3.1.5,4.1,1.4c1.1.9,1.7,2.3,2,4h7.1c-.4-3.6-1.7-6.4-4.1-8.4-2.4-2-5.4-3-9.1-3s-4.9.5-6.8,1.5c-1.9,1-3.3,2.3-4.3,3.9s-1.5,3.3-1.5,5.1.5,4.3,1.7,5.7c1.1,1.4,2.5,2.5,4,3.3,1.6.8,3.6,1.5,6,2.2,2.6.8,4.6,1.5,5.8,2.3s1.9,1.9,1.9,3.4-.5,2.2-1.5,3-2.5,1.2-4.4,1.2-3.4-.5-4.8-1.6-2.1-2.5-2.3-4.3h-7.1c.1,2.4.8,4.5,2,6.3,1.2,1.8,2.9,3.2,5,4.2,2.1,1,4.5,1.5,7.1,1.5s4.7-.4,6.7-1.3c2-.9,3.5-2.1,4.7-3.7,1.1-1.6,1.7-3.3,1.7-5.3s-.5-4.4-1.7-5.8c-1.1-1.5-2.5-2.6-4.1-3.3h0Z"/>
  <path class="cls-1" d="M435.4,50.8h-7.2v36.6c0,2.5.6,4.7,1.7,6.5s2.6,3.2,4.4,4.2,4,1.4,6.4,1.4,3.1-.2,4.6-.5v-5.9c-.9,0-1.8,0-2.7,0-1.7,0-3.1-.2-4.1-.6-1.1-.4-1.8-1.1-2.4-2-.5-.9-.8-2.3-.8-4v-17.6h10.5v-6h-10.5v-12.1h0Z"/>
  <path class="cls-1" d="M477.2,64.6c-2.6-1.7-5.5-2.5-8.7-2.5s-6.6.8-9.4,2.4c-2.8,1.6-5,3.8-6.5,6.7-1.5,2.9-2.3,6.1-2.3,9.8s.8,6.9,2.4,9.8c1.6,2.9,3.8,5.1,6.5,6.7s5.9,2.4,9.4,2.4,7.4-1.1,10.3-3.2c3-2.1,5-4.9,6.1-8.4h-7.3c-.8,1.7-1.9,3-3.4,3.8s-3.4,1.3-5.7,1.3c-3.2,0-5.9-1.2-8-3.4-1.5-1.7-2.5-3.7-2.9-6.1h28.1c.1-.7.1-1.7.1-2.8,0-3.5-.8-6.7-2.3-9.6s-3.6-5.2-6.3-6.8h0ZM457.6,77.9c.4-2.3,1.4-4.2,2.8-5.8,2.1-2.3,4.7-3.4,8-3.4s3.5.5,5.1,1.4,2.7,2.2,3.6,3.8c.7,1.3,1.1,2.7,1.3,4.1h-20.8,0Z"/>
  <path class="cls-1" d="M522.2,69.6c-1.3-2.4-3.1-4.2-5.5-5.5-2.4-1.3-5.1-2-8.3-2s-5.9.7-8.3,2c-2.4,1.3-4.2,3.2-5.5,5.5-1.3,2.4-1.9,5.1-1.9,8v21.4h7.1v-20.9c0-3,.7-5.4,2.2-7.1,1.4-1.7,3.6-2.5,6.4-2.5s5,.8,6.4,2.5c1.4,1.7,2.2,4,2.2,7.1v20.9h7.1v-21.4c0-3-.6-5.7-1.9-8h0Z"/>
</svg>